PathFileType	4	(X/Y/Z)	Patient4_TMGait_0pt8_01_left_13.trc.trc
DataRate	CameraRate	NumFrames	NumMarkers	Units	OrigDataRate	OrigDataStartFrame	OrigNumFrames
87.500000000000	87.500000000000	6	33	mm	87.500000000000	106	       141
Frame#	Time	Sacral			L.Shoulder			Chest			R.Shoulder			Neck			R.ASIS			L.ASIS			R.Thigh.Superior			R.Thigh.Lateral			R.Thigh.Inferior			R.Patella			L.Thigh.Superior			L.Thigh.Lateral			L.Thigh.Inferior			L.Patella			L.Shank.Superior			L.Shank.Lateral			L.Shank.Inferior			R.Shank.Superior			R.Shank.Lateral			R.Shank.Inferior			R.Heel			R.Midfoot.Superior			R.Midfoot.Lateral			R.Toe			L.Heel			L.Midfoot.Lateral			L.Midfoot.Superior			L.Toe			L.Elbow			L.Wrist			R.Elbow			R.Wrist			
		X1	Y1	Z1	X2	Y2	Z2	X3	Y3	Z3	X4	Y4	Z4	X5	Y5	Z5	X6	Y6	Z6	X7	Y7	Z7	X8	Y8	Z8	X9	Y9	Z9	X10	Y10	Z10	X11	Y11	Z11	X12	Y12	Z12	X13	Y13	Z13	X14	Y14	Z14	X15	Y15	Z15	X16	Y16	Z16	X17	Y17	Z17	X18	Y18	Z18	X19	Y19	Z19	X20	Y20	Z20	X21	Y21	Z21	X22	Y22	Z22	X23	Y23	Z23	X24	Y24	Z24	X25	Y25	Z25	X26	Y26	Z26	X27	Y27	Z27	X28	Y28	Z28	X29	Y29	Z29	X30	Y30	Z30	X31	Y31	Z31	X32	Y32	Z32	X33	Y33	Z33	

106	14.960000000000	895.830554802618	1012.749864353086	535.491048730235	1023.841390284848	1440.772885693759	330.094186744137	1160.579946487352	1372.198727496650	465.009784302199	1116.611430167116	1442.094375514404	654.323738631253	1045.433648529217	1501.727521803013	484.777220957613	1138.303492507526	947.038354343706	611.495289110849	1077.759636308512	971.382321333543	343.240187626639	1154.986678416688	740.374088059398	580.688325425516	1067.750174620808	636.297933857328	647.976056820439	1132.085443275377	578.913009786519	563.802161338647	1123.126128393875	492.768307747123	569.650439588807	1173.492911020948	799.650292062639	358.880971743361	1127.450744009389	668.932674518403	284.730509665795	1242.526041774998	613.797198362415	327.827487003725	1263.706787640858	530.124906168875	316.583010446413	1214.497346479977	454.213017345239	316.185444711286	1086.083384745137	373.103613122473	285.220396776682	1121.366028660093	244.995401743491	333.918380051892	1093.112298331111	406.101456822781	575.898722798311	1018.878721119111	302.981256148980	635.436829810207	1058.509870024152	208.448648742609	569.094805871435	918.995825996915	46.214097824107	532.525309018071	1091.876952423858	98.287867877966	573.339374368669	1001.338823791525	38.152812171632	608.255800162814	1209.660699017835	40.517165776116	601.689502539927	967.553870000744	125.530526924186	395.221035922729	1022.297583636240	99.615826520021	304.822218224001	1122.486208286740	138.815253339639	311.327573055036	1224.003683986256	55.971873178836	265.553200332563	964.561183575318	1086.060073441802	236.032928758128	1026.726569710326	831.341577696736	231.146831331174	1208.281005274655	1106.322008443471	778.335204832687	1406.668069563642	941.653576750988	743.105400515240	
107	14.971428571429	894.493635426437	1012.817107602502	535.866509019622	1022.756865156430	1440.212641829910	330.337394771982	1160.023812202538	1371.457755442815	464.599503874401	1117.152163287574	1441.597686256541	654.115325056358	1045.266917122159	1501.144722574985	485.120823999658	1136.891650847358	946.363077457593	611.486788890539	1076.091157489475	970.696304410641	343.170368417524	1150.588093449376	739.014553567450	580.747809855069	1061.747849413663	636.052449405109	648.351546248976	1124.695551997879	577.776245219474	564.192338807825	1114.529110055748	492.247306264877	569.919885051203	1171.940075070707	800.307271552521	359.510847961737	1127.483326079642	669.361947750773	284.639724940712	1242.247032557224	615.030171612749	328.920594273782	1265.069288815071	533.261227687382	317.236885698655	1219.946136814831	456.506652106368	316.015764823659	1097.402376361208	367.559685000247	283.869400769743	1141.054782548671	241.431909805851	331.584889668096	1084.352834146774	405.768652997144	576.148831826788	1010.021256078471	302.715084005349	635.711095339902	1049.397625256130	208.185045071468	569.185289906183	909.727939567355	45.921424697800	532.636715987489	1082.585890467489	98.233949830298	573.364071003086	992.041462323050	38.046280127898	608.347407840732	1200.377167219481	40.585936065098	601.737669183155	995.698294381419	111.989382523266	391.735524142738	1052.055215734008	89.936024330610	301.386513732166	1149.570406994670	135.198827709522	308.209727732075	1256.095058883138	58.895922267988	262.432486022016	955.384275788952	1086.795777692718	237.550383470123	1003.789906046218	829.357722676419	234.433390224822	1218.640758075615	1109.121045974268	777.094648458404	1427.003225838447	959.083768037887	735.976294715440	
108	14.982857142857	893.240334730718	1012.684700746549	536.037700287090	1021.853850329440	1439.482687973405	330.429700976195	1159.552424157085	1370.500190971117	464.116671673510	1117.662099176998	1440.878589154579	653.809457424932	1045.164169399493	1500.364489267811	485.348203247574	1135.501835266105	945.512810103493	611.401717873678	1074.589381220774	969.696202448049	342.982292815530	1146.245305669506	737.489778072820	580.942721560847	1055.655092256639	635.719035181108	648.712865000188	1117.299919485388	576.554558011167	564.623522407085	1105.957304742490	491.627084423855	570.205872910274	1170.086759940994	800.213670769567	360.170217334718	1126.927389319166	669.174355441138	284.533012334048	1241.201850834346	615.390190073285	330.232943884350	1265.581200086490	535.729973276081	318.162442546370	1224.619268073357	458.502496796596	316.029490431624	1108.652835672115	362.055477550798	282.317044560324	1160.489105743308	238.498206116173	329.253172608391	1075.535018200589	405.378578063555	576.396397690899	1001.113386180273	302.395818445173	635.990924267421	1040.222130181529	207.881239700161	569.267393409964	900.440639893958	45.560480012667	532.747996489984	1073.251629170420	98.168864318602	573.380546292298	982.719902398412	37.926092573468	608.443193954545	1191.080012631095	40.689189965394	601.779114879516	1024.174846155029	99.635023269855	387.880590315695	1082.194527892491	81.436043365586	297.811595060811	1176.623464595762	132.588392356002	305.163557922428	1287.834692799116	63.051803409086	259.882003940065	945.895060827636	1087.719805716953	238.951294109649	981.528889102582	828.510147785295	237.757812922354	1228.420384464334	1111.885919866954	775.545496821383	1445.788799666199	977.520932493136	728.510312892984	
109	14.994285714286	892.102490643296	1012.361027075307	536.016861218534	1021.125379337799	1438.602366703225	330.366571773562	1159.163959975125	1369.349917583419	463.556304263048	1118.141445251444	1439.966774111648	653.398346540759	1045.107443109642	1499.410411404459	485.438260784901	1134.158868624887	944.507617873464	611.233943142919	1073.259641832121	968.417070341972	342.673801821586	1141.979253181146	735.821472233233	581.242979996608	1049.524147291287	635.314734666697	649.054377003957	1109.940173225598	575.270998214207	565.072424503482	1097.460466046031	490.912407124469	570.493263033952	1167.969730907091	799.406058946305	360.835775303013	1125.812977492790	668.392551291986	284.384335364235	1239.477884483808	614.931710690140	331.672824942693	1265.333574747241	537.551199674193	319.318465776964	1228.552978510805	460.211308973340	316.217020201132	1119.751594542432	356.726498858828	280.595399967542	1179.435262333550	236.288055701325	327.009272097192	1066.706058040720	404.939670390349	576.637667435372	992.194286694129	302.045272395733	636.287848894544	1031.008046842689	207.551612664795	569.347678803321	891.135256764123	45.154987923095	532.859340580532	1063.880688723276	98.094156509503	573.392731599695	973.379635381057	37.799076225263	608.544557693700	1181.774680306837	40.820032589735	601.812568082250	1052.555850488939	88.688460351827	383.771208434917	1112.321668485423	74.278100015510	294.228651322198	1203.301102594641	131.078465952214	302.316178481260	1318.856758365975	68.451383019663	258.072357491569	936.196788517549	1088.864094212288	240.267944437711	960.038001850054	828.641969248206	241.119995919533	1237.638332098664	1114.592982595167	773.672781597825	1462.898536073034	996.807794802449	720.795124017418	
110	15.005714285714	891.105555517447	1011.859002458054	535.815898191005	1020.557933084771	1437.594604087122	330.145302686156	1158.852547322175	1368.038767309032	462.913377095853	1118.586109312123	1438.897652557523	652.874189910614	1045.079074182799	1498.309922955149	485.373848582137	1132.885828554789	943.370172520231	610.976945249177	1072.105081597056	966.903467640601	342.242893244470	1137.815513657205	734.038857493122	581.600575360782	1043.431744578945	634.855424209111	649.364522729020	1102.675637151569	573.951719001323	565.504043062593	1089.106438764148	490.112900731581	570.760078480756	1165.643841034186	797.949433534603	361.479041664132	1124.196440732384	667.062241033699	284.169398956694	1237.194123680154	613.740205417007	333.134427598049	1264.437293319736	538.759543085617	320.645584426923	1231.791345225294	461.638267039986	316.551292157691	1130.560937565175	351.686278235209	278.775950039735	1197.623555660606	234.832229873347	324.939933905418	1057.934483278504	404.461568565325	576.864372748934	983.321430548838	301.687172088609	636.608754118343	1021.791395175127	207.209708981924	569.429802133756	881.816758764577	44.733660619246	532.971264726522	1054.483287857490	98.010897405966	573.402986810624	964.028710555654	37.672102069070	608.651618223786	1172.468231799320	40.967176258716	601.837498423096	1080.354859599772	79.281743338059	379.577882721808	1141.949502509376	68.533030541474	290.795479164080	1229.190005307628	130.675955410084	299.788158280552	1348.724612087063	75.000053304625	257.107073182161	926.415651677999	1090.247839155921	241.527428100707	939.384503171174	829.604805898972	244.514420998484	1246.313098605151	1117.230407161268	771.469584186886	1478.228036547982	1016.761626041109	712.920971850039	
111	15.017142857143	890.266818051233	1011.196341492569	535.444297533580	1020.132794453144	1436.485349242849	329.764634725134	1158.609114556503	1366.605167628321	462.182595796819	1118.988658952792	1437.710493119100	652.229302464914	1045.063610076149	1497.093434550363	485.142718965445	1131.702760836007	942.125109697225	610.624451058242	1071.127517954927	965.206721917277	341.687752343136	1133.785713323337	732.176369644350	581.954416408595	1037.473130822970	634.353867787549	649.625925602906	1095.580692129870	572.622166029668	565.875479741764	1080.975763935845	489.241735768299	570.978889370426	1163.184422851828	795.937184652803	362.067484476322	1122.160545582123	665.250469069024	283.874399840125	1234.496970118454	611.928173970450	334.508511086662	1263.019811857611	539.400718169238	322.068633476491	1234.381951441437	462.779985155680	316.992032491375	1140.889274590579	347.017383224859	276.970261719688	1214.755773534379	234.092298713268	323.130043017269	1049.304809661694	403.953864068081	577.063785791502	974.564789902474	301.345106926256	636.953709895655	1012.616937772554	206.866746719065	569.513686229612	872.493239176269	44.327281476857	533.084134206828	1045.072384208170	97.919327774494	573.411586226109	954.677106693276	37.551498185688	608.763166402529	1163.168305222597	41.116215883856	601.854374329825	1107.043058812545	71.449233628323	375.523839168988	1170.506684365993	64.173976548363	287.688298786870	1253.818063066545	131.293306226818	297.685651520915	1376.937407472458	82.490586221068	257.001877424469	916.692652171273	1091.874319608947	242.749603181640	919.617756739564	831.263448476476	247.928465151158	1254.459571822733	1119.795701407966	768.938269371914	1491.698619335503	1037.178760042081	704.977714493566	
